<svg width="221" height="191" viewBox="0 0 221 191" fill="none" xmlns="http://www.w3.org/2000/svg">
<path d="M200.817 105.449L200.81 105.44L196.11 99.4401L191.642 93.7362V100.982V154.182C191.642 163.067 188.113 171.587 181.83 177.87C175.548 184.152 167.027 187.682 158.142 187.682H62.142C53.2572 187.682 44.7364 184.152 38.4539 177.87C32.1714 171.587 28.642 163.067 28.642 154.182V100.982V93.7362L24.1739 99.4401L19.4739 105.44L19.4674 105.449C18.1634 107.128 16.3288 108.315 14.2629 108.818C12.1969 109.32 10.0218 109.107 8.09257 108.213L8.06509 108.201L8.0373 108.188C6.09838 107.347 4.50834 105.864 3.53456 103.988C2.56078 102.112 2.26264 99.9575 2.69029 97.8876L2.69501 97.8647L2.6993 97.8418L19.0993 10.2418L19.1007 10.2343L19.1021 10.2268C19.3324 8.95364 19.823 7.74175 20.5433 6.66698C21.2635 5.59221 22.1979 4.6777 23.2879 3.98069C24.3779 3.28369 25.6 2.8192 26.8778 2.6163C28.1556 2.41341 29.4615 2.47648 30.7138 2.80157L30.7252 2.80453L30.7367 2.80738L86.0367 16.6074L86.3348 16.6818H86.642H133.642H133.949L134.247 16.6074L189.547 2.80738L189.559 2.80453L189.57 2.80157C190.822 2.47648 192.128 2.41341 193.406 2.6163C194.684 2.8192 195.906 3.28369 196.996 3.98069C198.086 4.6777 199.02 5.59221 199.741 6.66698C200.461 7.74175 200.952 8.95364 201.182 10.2268L201.183 10.2343L201.185 10.2418L217.585 97.8418L217.589 97.8647L217.594 97.8876C218.021 99.9575 217.723 102.112 216.749 103.988C215.776 105.864 214.186 107.347 212.247 108.188L213.242 110.482L212.191 108.213C210.262 109.107 208.087 109.32 206.021 108.818C203.955 108.315 202.121 107.128 200.817 105.449ZM81.1082 22.1258L83.4869 19.0967L79.7518 18.1573L30.0518 5.65728L29.7516 5.58177H29.442H28.4619C27.1539 5.56331 25.8748 5.96588 24.8135 6.72947C24.1042 7.20667 23.4976 7.82125 23.0295 8.53708C22.554 9.26433 22.2316 10.0807 22.0819 10.9365L5.59387 98.273C5.27383 99.7093 5.4505 101.212 6.09601 102.536C6.75005 103.877 7.84557 104.952 9.19862 105.581C10.5517 106.21 12.0799 106.354 13.5267 105.99C14.9629 105.628 16.2319 104.786 17.1243 103.605L81.1082 22.1258ZM188.642 90.8818V90.0181L188.109 89.3386L134.209 20.6386L133.458 19.6818H132.242H88.042H86.8258L86.0751 20.6386L32.1751 89.3386L31.642 90.0181V90.8818L31.642 154.182L31.642 154.191C31.6707 162.269 34.8924 170.007 40.6043 175.719C46.3163 181.431 54.0552 184.653 62.1331 184.682H62.142H106.142H108.642V182.182V163.882V162.851L107.916 162.12L93.2675 147.373C93.1016 147.105 93.0233 146.792 93.0458 146.475C93.0714 146.115 93.226 145.776 93.4813 145.521C93.7366 145.266 94.0755 145.111 94.4357 145.086C94.7519 145.063 95.066 145.141 95.3334 145.308L108.381 158.256L110.142 160.004L111.903 158.256L124.951 145.308C125.218 145.141 125.532 145.063 125.848 145.086C126.208 145.111 126.547 145.266 126.803 145.521C127.058 145.776 127.213 146.115 127.238 146.475C127.261 146.792 127.182 147.105 127.016 147.373L112.368 162.12L111.642 162.851V163.882V182.182V184.682H114.142L158.142 184.682L158.151 184.682C166.229 184.653 173.968 181.431 179.68 175.719C185.392 170.007 188.613 162.269 188.642 154.191V154.182V90.8818ZM214.188 102.536C214.833 101.212 215.01 99.7094 214.69 98.2731L198.202 10.8369C198.052 9.98093 197.73 9.16441 197.254 8.43708C196.775 7.70312 196.149 7.07561 195.416 6.5935L195.389 6.57521L195.36 6.55767C193.876 5.63618 192.1 5.30327 190.383 5.62434L190.307 5.63849L190.232 5.65728L140.532 18.1573L136.797 19.0967L139.176 22.1258L203.16 103.605C204.052 104.786 205.321 105.628 206.757 105.99C208.204 106.354 209.732 106.21 211.085 105.581C212.438 104.952 213.534 103.877 214.188 102.536ZM79.642 110.182C79.642 111.27 79.3194 112.333 78.7151 113.237C78.1107 114.142 77.2517 114.847 76.2467 115.263C75.2418 115.679 74.1359 115.788 73.069 115.576C72.0021 115.364 71.0221 114.84 70.2529 114.071C69.4837 113.302 68.9599 112.322 68.7477 111.255C68.5355 110.188 68.6444 109.082 69.0607 108.077C69.4769 107.072 70.1819 106.213 71.0863 105.609C71.9908 105.004 73.0542 104.682 74.142 104.682C75.6007 104.682 76.9996 105.261 78.0311 106.293C79.0625 107.324 79.642 108.723 79.642 110.182ZM149.198 114.755C148.293 115.359 147.23 115.682 146.142 115.682C144.683 115.682 143.284 115.102 142.253 114.071C141.221 113.039 140.642 111.64 140.642 110.182C140.642 109.094 140.965 108.031 141.569 107.126C142.173 106.222 143.032 105.517 144.037 105.1C145.042 104.684 146.148 104.575 147.215 104.787C148.282 105 149.262 105.523 150.031 106.293C150.8 107.062 151.324 108.042 151.536 109.109C151.749 110.176 151.64 111.282 151.223 112.287C150.807 113.292 150.102 114.151 149.198 114.755Z" fill="white" stroke="white" stroke-width="5"/>
</svg>
